{
  "accessors": [
    {
      "bufferView": 1,
      "componentType": 5126,
      "count": 2240,
      "max": [
        4.4436497688293457,
        6.4187798500061035,
        0.76876997947692871
      ],
      "min": [
        -0.70393002033233643,
        -0.80746001005172729,
        -4.0520801544189453
      ],
      "type": "VEC3"
    },
    {
      "bufferView": 1,
      "byteOffset": 26880,
      "componentType": 5126,
      "count": 2240,
      "max": [
        0.99207723140716553,
        0.99606060981750488,
        0.97060048580169678
      ],
      "min": [
        -0.99207723140716553,
        -0.99056726694107056,
        -0.97704058885574341
      ],
      "type": "VEC3"
    },
    {
      "bufferView": 0,
      "componentType": 5125,
      "count": 3120,
      "max": [
        2239
      ],
      "min": [
        0
      ],
      "type": "SCALAR"
    },
    {
      "bufferView": 1,
      "byteOffset": 53760,
      "componentType": 5126,
      "count": 724,
      "max": [
        4.3118500709533691,
        5.6945500373840332,
        0.76876997947692871
      ],
      "min": [
        -0.58069998025894165,
        -0.5028499960899353,
        -1.7114700078964233
      ],
      "type": "VEC3"
    },
    {
      "bufferView": 1,
      "byteOffset": 62448,
      "componentType": 5126,
      "count": 724,
      "max": [
        1,
        0.99083966016769409,
        1
      ],
      "min": [
        -1,
        -0.99083966016769409,
        -0.96314024925231934
      ],
      "type": "VEC3"
    },
    {
      "bufferView": 0,
      "byteOffset": 12480,
      "componentType": 5125,
      "count": 1092,
      "max": [
        723
      ],
      "min": [
        0
      ],
      "type": "SCALAR"
    }
  ],
  "asset": {
    "extras": {
      "author": "VioletBoom (https://sketchfab.com/violetboom)",
      "license": "CC-BY-4.0 (http://creativecommons.org/licenses/by/4.0/)",
      "source": "https://sketchfab.com/3d-models/teddy-bear-0e6356a258d3439b8362644bc0dec88b",
      "title": "Teddy bear"
    },
    "generator": "Sketchfab-5.36.0",
    "version": "2.0"
  },
  "bufferViews": [
    {
      "buffer": 0,
      "byteLength": 16848,
      "byteOffset": 0,
      "name": "floatBufferViews",
      "target": 34963
    },
    {
      "buffer": 0,
      "byteLength": 71136,
      "byteOffset": 16848,
      "byteStride": 12,
      "name": "floatBufferViews",
      "target": 34962
    }
  ],
  "buffers": [
    {
      "byteLength": 87984,
      "uri": "scene.bin"
    }
  ],
  "materials": [
    {
      "doubleSided": true,
      "emissiveFactor": [
        0,
        0,
        0
      ],
      "name": "Material.001",
      "pbrMetallicRoughness": {
        "baseColorFactor": [
          0.49584650990000001,
          0.2761153281,
          0.087462410300000001,
          1
        ],
        "metallicFactor": 0,
        "roughnessFactor": 0.59999999999999998
      }
    },
    {
      "doubleSided": true,
      "emissiveFactor": [
        0,
        0,
        0
      ],
      "name": "Material.002",
      "pbrMetallicRoughness": {
        "baseColorFactor": [
          0.2066864967,
          0.029397590099999999,
          0,
          1
        ],
        "metallicFactor": 0,
        "roughnessFactor": 0.59999999999999998
      }
    }
  ],
  "meshes": [
    {
      "name": "Cylinder_0",
      "primitives": [
        {
          "attributes": {
            "NORMAL": 1,
            "POSITION": 0
          },
          "indices": 2,
          "material": 0,
          "mode": 4
        }
      ]
    },
    {
      "name": "Cylinder_1",
      "primitives": [
        {
          "attributes": {
            "NORMAL": 4,
            "POSITION": 3
          },
          "indices": 5,
          "material": 1,
          "mode": 4
        }
      ]
    }
  ],
  "nodes": [
    {
      "children": [
        1
      ],
      "name": "RootNode (gltf orientation matrix)",
      "rotation": [
        -0.70710678118654746,
        -0,
        -0,
        0.70710678118654757
      ]
    },
    {
      "children": [
        2
      ],
      "name": "RootNode (model correction matrix)"
    },
    {
      "children": [
        3,
        5
      ],
      "name": "Root"
    },
    {
      "children": [
        4
      ],
      "matrix": [
        -0.29086000000000006,
        0.95517000000000007,
        -0.05519000000000001,
        0,
        -0.77110000000000001,
        -0.19988000000000003,
        0.60452000000000006,
        0,
        0.56639000000000006,
        0.21839000000000003,
        0.7946700000000001,
        0,
        4.0762500000000008,
        1.00545,
        5.9038600000000008,
        1
      ],
      "name": "Lamp"
    },
    {
      "name": "Lamp"
    },
    {
      "children": [
        6,
        7
      ],
      "matrix": [
        0.53369000000000011,
        0,
        0,
        0,
        0,
        -0,
        0.53369000000000011,
        0,
        0,
        -0.53369000000000011,
        -0,
        0,
        -1.0025199999999999,
        -1.2315199999999997,
        1.0882400000000001,
        1
      ],
      "name": "Cylinder"
    },
    {
      "mesh": 0,
      "name": "Cylinder_0"
    },
    {
      "mesh": 1,
      "name": "Cylinder_1"
    }
  ],
  "scene": 0,
  "scenes": [
    {
      "name": "OSG_Scene",
      "nodes": [
        0
      ]
    }
  ]
}

