{
  "accessors": [
    {
      "bufferView": 2,
      "componentType": 5126,
      "count": 360,
      "max": [
        1.852514386177063,
        1.227003812789917,
        2.768024444580078
      ],
      "min": [
        -1.6076165437698364,
        -1.227003812789917,
        -0.5412766337394714
      ],
      "type": "VEC3"
    },
    {
      "bufferView": 2,
      "byteOffset": 4320,
      "componentType": 5126,
      "count": 360,
      "max": [
        0.9999263286590576,
        0.9995760917663574,
        0.9999831914901733
      ],
      "min": [
        -0.9997612237930298,
        -0.9995760917663574,
        -0.9999997615814209
      ],
      "type": "VEC3"
    },
    {
      "bufferView": 1,
      "componentType": 5126,
      "count": 360,
      "max": [
        0.8750001192092896,
        0.6250000596046448
      ],
      "min": [
        0.125,
        0.125
      ],
      "type": "VEC2"
    },
    {
      "bufferView": 0,
      "componentType": 5125,
      "count": 1632,
      "type": "SCALAR"
    },
    {
      "bufferView": 2,
      "byteOffset": 8640,
      "componentType": 5126,
      "count": 192,
      "max": [
        0.24193325638771057,
        0.28609371185302734,
        0.3162264823913574
      ],
      "min": [
        0.11765800416469574,
        -0.28609374165534973,
        0.05965881049633026
      ],
      "type": "VEC3"
    },
    {
      "bufferView": 2,
      "byteOffset": 10944,
      "componentType": 5126,
      "count": 192,
      "max": [
        0.9801738262176514,
        0.9873296618461609,
        0.8446863293647766
      ],
      "min": [
        -0.9801738858222961,
        -0.9873296022415161,
        -0.8446862697601318
      ],
      "type": "VEC3"
    },
    {
      "bufferView": 1,
      "byteOffset": 2880,
      "componentType": 5126,
      "count": 192,
      "max": [
        0.8750001192092896,
        1.0000001192092896
      ],
      "min": [
        0.1250000149011612,
        0.0
      ],
      "type": "VEC2"
    },
    {
      "bufferView": 0,
      "byteOffset": 6528,
      "componentType": 5125,
      "count": 288,
      "type": "SCALAR"
    },
    {
      "bufferView": 2,
      "byteOffset": 13248,
      "componentType": 5126,
      "count": 192,
      "max": [
        0.24802161753177643,
        0.2638503611087799,
        0.27680832147598267
      ],
      "min": [
        0.171197310090065,
        -0.2638503611087799,
        0.11820364743471146
      ],
      "type": "VEC3"
    },
    {
      "bufferView": 2,
      "byteOffset": 15552,
      "componentType": 5126,
      "count": 192,
      "max": [
        0.9801737666130066,
        0.9873295426368713,
        0.8446862101554871
      ],
      "min": [
        -0.9801737666130066,
        -0.9873296022415161,
        -0.8446865081787109
      ],
      "type": "VEC3"
    },
    {
      "bufferView": 1,
      "byteOffset": 4416,
      "componentType": 5126,
      "count": 192,
      "max": [
        0.8750001192092896,
        1.0000001192092896
      ],
      "min": [
        0.1250000149011612,
        0.0
      ],
      "type": "VEC2"
    },
    {
      "bufferView": 0,
      "byteOffset": 7680,
      "componentType": 5125,
      "count": 288,
      "type": "SCALAR"
    },
    {
      "bufferView": 2,
      "byteOffset": 17856,
      "componentType": 5126,
      "count": 257,
      "max": [
        0.5044400095939636,
        0.29223892092704773,
        -0.0034695975482463837
      ],
      "min": [
        0.13996227085590363,
        -0.29223889112472534,
        -0.25554439425468445
      ],
      "type": "VEC3"
    },
    {
      "bufferView": 2,
      "byteOffset": 20940,
      "componentType": 5126,
      "count": 257,
      "max": [
        0.985106348991394,
        0.9943487048149109,
        0.9999955892562866
      ],
      "min": [
        -0.22380006313323975,
        -0.9943487048149109,
        -0.9999135732650757
      ],
      "type": "VEC3"
    },
    {
      "bufferView": 1,
      "byteOffset": 5952,
      "componentType": 5126,
      "count": 257,
      "max": [
        0.8750001192092896,
        0.6250000596046448
      ],
      "min": [
        0.125,
        0.25
      ],
      "type": "VEC2"
    },
    {
      "bufferView": 0,
      "byteOffset": 8832,
      "componentType": 5125,
      "count": 984,
      "type": "SCALAR"
    }
  ],
  "asset": {
    "extras": {
      "author": "Tidominer (https://sketchfab.com/tidominer)",
      "license": "CC-BY-4.0 (http://creativecommons.org/licenses/by/4.0/)",
      "source": "https://sketchfab.com/3d-models/rubber-duck-e6934ddb3982497e8ddb7936c56d089c",
      "title": "Rubber Duck"
    },
    "generator": "Sketchfab-11.41.0",
    "version": "2.0"
  },
  "bufferViews": [
    {
      "buffer": 0,
      "byteLength": 12768,
      "name": "floatBufferViews",
      "target": 34963
    },
    {
      "buffer": 0,
      "byteLength": 8008,
      "byteOffset": 12768,
      "byteStride": 8,
      "name": "floatBufferViews",
      "target": 34962
    },
    {
      "buffer": 0,
      "byteLength": 24024,
      "byteOffset": 20776,
      "byteStride": 12,
      "name": "floatBufferViews",
      "target": 34962
    }
  ],
  "buffers": [
    {
      "byteLength": 44800,
      "uri": "scene.bin"
    }
  ],
  "materials": [
    {
      "doubleSided": true,
      "name": "RubberDuck",
      "pbrMetallicRoughness": {
        "baseColorFactor": [
          0.8,
          0.422676,
          0.0593932,
          1.0
        ],
        "metallicFactor": 0.0,
        "roughnessFactor": 0.5
      }
    },
    {
      "doubleSided": true,
      "name": "RubberDuckEyeWhite",
      "pbrMetallicRoughness": {
        "metallicFactor": 0.0,
        "roughnessFactor": 0.5
      }
    },
    {
      "doubleSided": true,
      "name": "RubberDuckEyeBlack",
      "pbrMetallicRoughness": {
        "baseColorFactor": [
          0.0,
          0.0,
          0.0,
          1.0
        ],
        "metallicFactor": 0.0,
        "roughnessFactor": 0.5
      }
    },
    {
      "doubleSided": true,
      "name": "RubberDuckBeak",
      "pbrMetallicRoughness": {
        "baseColorFactor": [
          0.8,
          0.210504,
          0.0451247,
          1.0
        ],
        "metallicFactor": 0.0,
        "roughnessFactor": 0.5
      }
    }
  ],
  "meshes": [
    {
      "name": "RubberDuckBody_RubberDuck_0",
      "primitives": [
        {
          "attributes": {
            "NORMAL": 1,
            "POSITION": 0,
            "TEXCOORD_0": 2
          },
          "indices": 3,
          "material": 0,
          "mode": 4
        }
      ]
    },
    {
      "name": "RubberDuckEyes_RubberDuckEyeWhite_0",
      "primitives": [
        {
          "attributes": {
            "NORMAL": 5,
            "POSITION": 4,
            "TEXCOORD_0": 6
          },
          "indices": 7,
          "material": 1,
          "mode": 4
        }
      ]
    },
    {
      "name": "RubberDuckEyes_RubberDuckEyeBlack_0",
      "primitives": [
        {
          "attributes": {
            "NORMAL": 9,
            "POSITION": 8,
            "TEXCOORD_0": 10
          },
          "indices": 11,
          "material": 2,
          "mode": 4
        }
      ]
    },
    {
      "name": "RubberDuckBeak_RubberDuckBeak_0",
      "primitives": [
        {
          "attributes": {
            "NORMAL": 13,
            "POSITION": 12,
            "TEXCOORD_0": 14
          },
          "indices": 15,
          "material": 3,
          "mode": 4
        }
      ]
    }
  ],
  "nodes": [
    {
      "children": [
        1
      ],
      "matrix": [
        0.36235910654067993,
        0.0,
        0.0,
        0.0,
        0.0,
        8.04598846528126e-17,
        -0.36235910654067993,
        0.0,
        0.0,
        0.36235910654067993,
        8.04598846528126e-17,
        0.0,
        0.0,
        0.0,
        0.0,
        1.0
      ],
      "name": "Sketchfab_model"
    },
    {
      "children": [
        2
      ],
      "matrix": [
        0.009999999776482582,
        0.0,
        0.0,
        0.0,
        0.0,
        0.0,
        0.009999999776482582,
        0.0,
        0.0,
        -0.009999999776482582,
        0.0,
        0.0,
        0.0,
        0.0,
        0.0,
        1.0
      ],
      "name": "483c0a06b766418d8253066e0b57992c.fbx"
    },
    {
      "children": [
        3,
        5,
        8
      ],
      "name": "RootNode"
    },
    {
      "children": [
        4
      ],
      "matrix": [
        100.0,
        0.0,
        0.0,
        0.0,
        0.0,
        -1.629206793918314e-05,
        -99.99999999999868,
        0.0,
        0.0,
        99.99999999999868,
        -1.629206793918314e-05,
        0.0,
        0.0,
        0.0,
        0.0,
        1.0
      ],
      "name": "RubberDuckBody"
    },
    {
      "mesh": 0,
      "name": "RubberDuckBody_RubberDuck_0"
    },
    {
      "children": [
        6,
        7
      ],
      "matrix": [
        129.88922119140625,
        0.0,
        0.0,
        0.0,
        0.0,
        -2.1161640162179772e-05,
        -129.88922119140454,
        0.0,
        0.0,
        129.88922119140454,
        -2.1161640162179772e-05,
        0.0,
        153.03097534179688,
        193.68922424316406,
        9.313225746154785e-08,
        1.0
      ],
      "name": "RubberDuckEyes"
    },
    {
      "mesh": 1,
      "name": "RubberDuckEyes_RubberDuckEyeWhite_0"
    },
    {
      "mesh": 2,
      "name": "RubberDuckEyes_RubberDuckEyeBlack_0"
    },
    {
      "children": [
        9
      ],
      "matrix": [
        129.88922119140625,
        0.0,
        0.0,
        0.0,
        0.0,
        -2.1161640162179772e-05,
        -129.88922119140454,
        0.0,
        0.0,
        129.88922119140454,
        -2.1161640162179772e-05,
        0.0,
        144.43519592285156,
        197.9506072998047,
        9.313225746154785e-08,
        1.0
      ],
      "name": "RubberDuckBeak"
    },
    {
      "mesh": 3,
      "name": "RubberDuckBeak_RubberDuckBeak_0"
    }
  ],
  "scene": 0,
  "scenes": [
    {
      "name": "Sketchfab_Scene",
      "nodes": [
        0
      ]
    }
  ]
}
