{
  "accessors": [
    {
      "bufferView": 2,
      "componentType": 5126,
      "count": 1682,
      "max": [
        4.0,
        6.83814001083374,
        6.003990173339844
      ],
      "min": [
        -4.0,
        -7.847189903259277,
        -0.03999999910593033
      ],
      "type": "VEC3"
    },
    {
      "bufferView": 2,
      "byteOffset": 20184,
      "componentType": 5126,
      "count": 1682,
      "max": [
        1.0,
        1.0,
        1.0
      ],
      "min": [
        -1.0,
        -1.0,
        -1.0
      ],
      "type": "VEC3"
    },
    {
      "bufferView": 2,
      "byteOffset": 40368,
      "componentType": 5126,
      "count": 1682,
      "max": [
        1.0,
        1.0,
        1.0
      ],
      "min": [
        1.0,
        1.0,
        1.0
      ],
      "type": "VEC3"
    },
    {
      "bufferView": 1,
      "componentType": 5126,
      "count": 1682,
      "max": [
        0.990369975566864,
        0.990880012512207
      ],
      "min": [
        0.0,
        0.0
      ],
      "type": "VEC2"
    },
    {
      "bufferView": 0,
      "componentType": 5125,
      "count": 5394,
      "type": "SCALAR"
    },
    {
      "bufferView": 2,
      "byteOffset": 60552,
      "componentType": 5126,
      "count": 648,
      "max": [
        0.800000011920929,
        1.9078999757766724,
        1.9078999757766724
      ],
      "min": [
        -0.800000011920929,
        -1.9078999757766724,
        -1.9078999757766724
      ],
      "type": "VEC3"
    },
    {
      "bufferView": 2,
      "byteOffset": 68328,
      "componentType": 5126,
      "count": 648,
      "max": [
        0.9704281091690063,
        1.0,
        1.0
      ],
      "min": [
        -1.0,
        -1.0,
        -1.0
      ],
      "type": "VEC3"
    },
    {
      "bufferView": 2,
      "byteOffset": 76104,
      "componentType": 5126,
      "count": 648,
      "max": [
        1.0,
        1.0,
        1.0
      ],
      "min": [
        1.0,
        1.0,
        1.0
      ],
      "type": "VEC3"
    },
    {
      "bufferView": 1,
      "byteOffset": 13456,
      "componentType": 5126,
      "count": 648,
      "max": [
        0.420199990272522,
        0.4885999858379364
      ],
      "min": [
        0.0,
        0.0
      ],
      "type": "VEC2"
    },
    {
      "bufferView": 0,
      "byteOffset": 21576,
      "componentType": 5125,
      "count": 2724,
      "type": "SCALAR"
    },
    {
      "bufferView": 2,
      "byteOffset": 83880,
      "componentType": 5126,
      "count": 648,
      "max": [
        0.800000011920929,
        1.9078999757766724,
        1.9078999757766724
      ],
      "min": [
        -0.800000011920929,
        -1.9078999757766724,
        -1.9078999757766724
      ],
      "type": "VEC3"
    },
    {
      "bufferView": 2,
      "byteOffset": 91656,
      "componentType": 5126,
      "count": 648,
      "max": [
        0.9704281091690063,
        1.0,
        1.0
      ],
      "min": [
        -1.0,
        -1.0,
        -1.0
      ],
      "type": "VEC3"
    },
    {
      "bufferView": 2,
      "byteOffset": 99432,
      "componentType": 5126,
      "count": 648,
      "max": [
        1.0,
        1.0,
        1.0
      ],
      "min": [
        1.0,
        1.0,
        1.0
      ],
      "type": "VEC3"
    },
    {
      "bufferView": 1,
      "byteOffset": 18640,
      "componentType": 5126,
      "count": 648,
      "max": [
        0.420199990272522,
        0.4885999858379364
      ],
      "min": [
        0.0,
        0.0
      ],
      "type": "VEC2"
    },
    {
      "bufferView": 0,
      "byteOffset": 32472,
      "componentType": 5125,
      "count": 2724,
      "type": "SCALAR"
    },
    {
      "bufferView": 2,
      "byteOffset": 107208,
      "componentType": 5126,
      "count": 648,
      "max": [
        0.800000011920929,
        1.9078999757766724,
        1.9078999757766724
      ],
      "min": [
        -0.800000011920929,
        -1.9078999757766724,
        -1.9078999757766724
      ],
      "type": "VEC3"
    },
    {
      "bufferView": 2,
      "byteOffset": 114984,
      "componentType": 5126,
      "count": 648,
      "max": [
        0.9704281091690063,
        1.0,
        1.0
      ],
      "min": [
        -1.0,
        -1.0,
        -1.0
      ],
      "type": "VEC3"
    },
    {
      "bufferView": 2,
      "byteOffset": 122760,
      "componentType": 5126,
      "count": 648,
      "max": [
        1.0,
        1.0,
        1.0
      ],
      "min": [
        1.0,
        1.0,
        1.0
      ],
      "type": "VEC3"
    },
    {
      "bufferView": 1,
      "byteOffset": 23824,
      "componentType": 5126,
      "count": 648,
      "max": [
        0.420199990272522,
        0.4885999858379364
      ],
      "min": [
        0.0,
        0.0
      ],
      "type": "VEC2"
    },
    {
      "bufferView": 0,
      "byteOffset": 43368,
      "componentType": 5125,
      "count": 2724,
      "type": "SCALAR"
    },
    {
      "bufferView": 2,
      "byteOffset": 130536,
      "componentType": 5126,
      "count": 648,
      "max": [
        0.800000011920929,
        1.9078999757766724,
        1.9078999757766724
      ],
      "min": [
        -0.800000011920929,
        -1.9078999757766724,
        -1.9078999757766724
      ],
      "type": "VEC3"
    },
    {
      "bufferView": 2,
      "byteOffset": 138312,
      "componentType": 5126,
      "count": 648,
      "max": [
        0.9704281091690063,
        1.0,
        1.0
      ],
      "min": [
        -1.0,
        -1.0,
        -1.0
      ],
      "type": "VEC3"
    },
    {
      "bufferView": 2,
      "byteOffset": 146088,
      "componentType": 5126,
      "count": 648,
      "max": [
        1.0,
        1.0,
        1.0
      ],
      "min": [
        1.0,
        1.0,
        1.0
      ],
      "type": "VEC3"
    },
    {
      "bufferView": 1,
      "byteOffset": 29008,
      "componentType": 5126,
      "count": 648,
      "max": [
        0.420199990272522,
        0.4885999858379364
      ],
      "min": [
        0.0,
        0.0
      ],
      "type": "VEC2"
    },
    {
      "bufferView": 0,
      "byteOffset": 54264,
      "componentType": 5125,
      "count": 2724,
      "type": "SCALAR"
    },
    {
      "bufferView": 2,
      "byteOffset": 153864,
      "componentType": 5126,
      "count": 24,
      "max": [
        0.12037000060081482,
        0.10372000187635422,
        0.30000001192092896
      ],
      "min": [
        -0.05962999910116196,
        -0.10412000119686127,
        0.0
      ],
      "type": "VEC3"
    },
    {
      "bufferView": 2,
      "byteOffset": 154152,
      "componentType": 5126,
      "count": 24,
      "max": [
        1.0,
        0.8660327196121216,
        0.0
      ],
      "min": [
        -0.49998733401298523,
        -0.8660327196121216,
        0.0
      ],
      "type": "VEC3"
    },
    {
      "bufferView": 2,
      "byteOffset": 154440,
      "componentType": 5126,
      "count": 24,
      "max": [
        1.0,
        1.0,
        1.0
      ],
      "min": [
        1.0,
        1.0,
        1.0
      ],
      "type": "VEC3"
    },
    {
      "bufferView": 1,
      "byteOffset": 34192,
      "componentType": 5126,
      "count": 24,
      "max": [
        0.8791499733924866,
        0.23285000026226044
      ],
      "min": [
        0.8723199963569641,
        0.227960005402565
      ],
      "type": "VEC2"
    },
    {
      "bufferView": 0,
      "byteOffset": 65160,
      "componentType": 5125,
      "count": 54,
      "type": "SCALAR"
    },
    {
      "bufferView": 2,
      "byteOffset": 154728,
      "componentType": 5126,
      "count": 30,
      "max": [
        0.148499995470047,
        0.14839999377727509,
        0.10000000149011612
      ],
      "min": [
        -0.15150000154972076,
        -0.15160000324249268,
        -0.0
      ],
      "type": "VEC3"
    },
    {
      "bufferView": 2,
      "byteOffset": 155088,
      "componentType": 5126,
      "count": 30,
      "max": [
        1.0,
        0.8660327196121216,
        0.5773503184318542
      ],
      "min": [
        -0.5773503184318542,
        -0.8660327196121216,
        -0.5773503184318542
      ],
      "type": "VEC3"
    },
    {
      "bufferView": 2,
      "byteOffset": 155448,
      "componentType": 5126,
      "count": 30,
      "max": [
        1.0,
        1.0,
        1.0
      ],
      "min": [
        0.0,
        0.0,
        0.0
      ],
      "type": "VEC3"
    },
    {
      "bufferView": 1,
      "byteOffset": 34384,
      "componentType": 5126,
      "count": 30,
      "max": [
        0.823170006275177,
        0.38078999519348145
      ],
      "min": [
        0.10446000099182129,
        0.026009999215602875
      ],
      "type": "VEC2"
    },
    {
      "bufferView": 0,
      "byteOffset": 65376,
      "componentType": 5125,
      "count": 54,
      "type": "SCALAR"
    }
  ],
  "asset": {
    "extras": {
      "author": "sergio (https://sketchfab.com/kikizana)",
      "license": "CC-BY-NC-4.0 (http://creativecommons.org/licenses/by-nc/4.0/)",
      "source": "https://sketchfab.com/3d-models/rc-toy-story-4bd19f180b654d629ff729809cbb8a7a",
      "title": "RC Toy Story"
    },
    "generator": "Sketchfab-11.67.0",
    "version": "2.0"
  },
  "bufferViews": [
    {
      "buffer": 0,
      "byteLength": 65592,
      "name": "floatBufferViews",
      "target": 34963
    },
    {
      "buffer": 0,
      "byteLength": 34624,
      "byteOffset": 65592,
      "byteStride": 8,
      "name": "floatBufferViews",
      "target": 34962
    },
    {
      "buffer": 0,
      "byteLength": 155808,
      "byteOffset": 100216,
      "byteStride": 12,
      "name": "floatBufferViews",
      "target": 34962
    }
  ],
  "buffers": [
    {
      "byteLength": 256024,
      "uri": "scene.bin"
    }
  ],
  "images": [
    {
      "uri": "textures/000000000_baseColor.png"
    }
  ],
  "materials": [
    {
      "doubleSided": true,
      "name": "000000000",
      "pbrMetallicRoughness": {
        "baseColorTexture": {
          "index": 0
        },
        "metallicFactor": 0.0,
        "roughnessFactor": 0.6
      }
    }
  ],
  "meshes": [
    {
      "name": "BODY_0",
      "primitives": [
        {
          "attributes": {
            "COLOR_0": 2,
            "NORMAL": 1,
            "POSITION": 0,
            "TEXCOORD_0": 3
          },
          "indices": 4,
          "material": 0,
          "mode": 4
        }
      ]
    },
    {
      "name": "WHEEL 3_0",
      "primitives": [
        {
          "attributes": {
            "COLOR_0": 7,
            "NORMAL": 6,
            "POSITION": 5,
            "TEXCOORD_0": 8
          },
          "indices": 9,
          "material": 0,
          "mode": 4
        }
      ]
    },
    {
      "name": "WHEEL 3_0",
      "primitives": [
        {
          "attributes": {
            "COLOR_0": 12,
            "NORMAL": 11,
            "POSITION": 10,
            "TEXCOORD_0": 13
          },
          "indices": 14,
          "material": 0,
          "mode": 4
        }
      ]
    },
    {
      "name": "WHEEL 3_0",
      "primitives": [
        {
          "attributes": {
            "COLOR_0": 17,
            "NORMAL": 16,
            "POSITION": 15,
            "TEXCOORD_0": 18
          },
          "indices": 19,
          "material": 0,
          "mode": 4
        }
      ]
    },
    {
      "name": "WHEEL 3_0",
      "primitives": [
        {
          "attributes": {
            "COLOR_0": 22,
            "NORMAL": 21,
            "POSITION": 20,
            "TEXCOORD_0": 23
          },
          "indices": 24,
          "material": 0,
          "mode": 4
        }
      ]
    },
    {
      "name": "AERIAL_0",
      "primitives": [
        {
          "attributes": {
            "COLOR_0": 27,
            "NORMAL": 26,
            "POSITION": 25,
            "TEXCOORD_0": 28
          },
          "indices": 29,
          "material": 0,
          "mode": 4
        }
      ]
    },
    {
      "name": "AERIAL_T_0",
      "primitives": [
        {
          "attributes": {
            "COLOR_0": 32,
            "NORMAL": 31,
            "POSITION": 30,
            "TEXCOORD_0": 33
          },
          "indices": 34,
          "material": 0,
          "mode": 4
        }
      ]
    }
  ],
  "nodes": [
    {
      "children": [
        1
      ],
      "matrix": [
        0.2572166323661804,
        0.0,
        0.0,
        0.0,
        0.0,
        5.711356551389555e-17,
        -0.2572166323661804,
        0.0,
        0.0,
        0.2572166323661804,
        5.711356551389555e-17,
        0.0,
        0.0,
        0.0,
        0.0,
        1.0
      ],
      "name": "Sketchfab_model"
    },
    {
      "children": [
        2,
        4,
        6,
        8,
        10,
        12,
        14
      ],
      "name": "Root"
    },
    {
      "children": [
        3
      ],
      "name": "BODY"
    },
    {
      "mesh": 0,
      "name": "BODY_0"
    },
    {
      "children": [
        5
      ],
      "matrix": [
        1.0,
        0.0,
        0.0,
        0.0,
        0.0,
        1.0,
        0.0,
        0.0,
        0.0,
        0.0,
        1.0,
        0.0,
        -3.15,
        3.25,
        0.45,
        1.0
      ],
      "name": "WHEEL 0"
    },
    {
      "mesh": 1,
      "name": "WHEEL 3_0"
    },
    {
      "children": [
        7
      ],
      "matrix": [
        1.0,
        0.0,
        0.0,
        0.0,
        0.0,
        1.0,
        0.0,
        0.0,
        0.0,
        0.0,
        1.0,
        0.0,
        3.15,
        3.25,
        0.45,
        1.0
      ],
      "name": "WHEEL 1"
    },
    {
      "mesh": 2,
      "name": "WHEEL 3_0"
    },
    {
      "children": [
        9
      ],
      "matrix": [
        1.0,
        0.0,
        0.0,
        0.0,
        0.0,
        1.0,
        0.0,
        0.0,
        0.0,
        0.0,
        1.0,
        0.0,
        -3.25,
        -4.95,
        0.45,
        1.0
      ],
      "name": "WHEEL 2"
    },
    {
      "mesh": 3,
      "name": "WHEEL 3_0"
    },
    {
      "children": [
        11
      ],
      "matrix": [
        1.0,
        0.0,
        0.0,
        0.0,
        0.0,
        1.0,
        0.0,
        0.0,
        0.0,
        0.0,
        1.0,
        0.0,
        3.25,
        -4.95,
        0.45,
        1.0
      ],
      "name": "WHEEL 3"
    },
    {
      "mesh": 4,
      "name": "WHEEL 3_0"
    },
    {
      "children": [
        13
      ],
      "matrix": [
        -1.0,
        0.0,
        -0.0,
        0.0,
        0.0,
        1.0,
        0.0,
        0.0,
        0.0,
        0.0,
        -17.5,
        0.0,
        2.4,
        -1.9,
        7.35,
        1.0
      ],
      "name": "AERIAL"
    },
    {
      "mesh": 5,
      "name": "AERIAL_0"
    },
    {
      "children": [
        15
      ],
      "matrix": [
        -1.0,
        0.0,
        -0.0,
        0.0,
        0.0,
        1.0,
        0.0,
        0.0,
        0.0,
        0.0,
        -17.5,
        0.0,
        2.4,
        -1.9,
        9.1,
        1.0
      ],
      "name": "AERIAL_T"
    },
    {
      "mesh": 6,
      "name": "AERIAL_T_0"
    }
  ],
  "samplers": [
    {
      "magFilter": 9729,
      "minFilter": 9987,
      "wrapS": 10497,
      "wrapT": 10497
    }
  ],
  "scene": 0,
  "scenes": [
    {
      "name": "Sketchfab_Scene",
      "nodes": [
        0
      ]
    }
  ],
  "textures": [
    {
      "sampler": 0,
      "source": 0
    }
  ]
}
